<svg width="200" height="200" viewBox="0 0 200 200" fill="none" xmlns="http://www.w3.org/2000/svg">
  <!-- Background circle with gradient -->
  <circle cx="100" cy="100" r="98" fill="url(#gradient)" stroke="#2563eb" stroke-width="4"/>
  
  <!-- Radar animation -->
  <circle cx="100" cy="100" r="70" stroke="#2563eb" stroke-width="2" fill="none">
    <animate attributeName="r" from="20" to="70" dur="2s" repeatCount="indefinite"/>
    <animate attributeName="opacity" from="1" to="0" dur="2s" repeatCount="indefinite"/>
  </circle>
  
  <!-- Domain icon -->
  <path d="M100 60C77.9086 60 60 77.9086 60 100C60 122.091 77.9086 140 100 140C122.091 140 140 122.091 140 100C140 77.9086 122.091 60 100 60ZM100 65C119.33 65 135 80.67 135 100C135 119.33 119.33 135 100 135C80.67 135 65 119.33 65 100C65 80.67 80.67 65 100 65Z" fill="#2563eb"/>
  
  <!-- Scanning lines -->
  <g>
    <line x1="30" y1="100" x2="170" y2="100" stroke="#2563eb" stroke-width="2">
      <animate attributeName="y1" from="90" to="110" dur="1s" repeatCount="indefinite"/>
      <animate attributeName="y2" from="90" to="110" dur="1s" repeatCount="indefinite"/>
    </line>
    <line x1="100" y1="30" x2="100" y2="170" stroke="#2563eb" stroke-width="2">
      <animate attributeName="x1" from="90" to="110" dur="1s" repeatCount="indefinite"/>
      <animate attributeName="x2" from="90" to="110" dur="1s" repeatCount="indefinite"/>
    </line>
  </g>
  
  <!-- Pulse effect -->
  <circle cx="100" cy="100" r="40" fill="none" stroke="#2563eb" stroke-width="2">
    <animate attributeName="r" from="40" to="60" dur="1.5s" repeatCount="indefinite"/>
    <animate attributeName="opacity" from="1" to="0" dur="1.5s" repeatCount="indefinite"/>
  </circle>
  
  <!-- Gradient definition -->
  <defs>
    <linearGradient id="gradient" x1="0" y1="0" x2="200" y2="200" gradientUnits="userSpaceOnUse">
      <stop offset="0%" stop-color="#1e40af"/>
      <stop offset="100%" stop-color="#2563eb"/>
    </linearGradient>
  </defs>
</svg> 